<svg width="19" height="18" viewBox="0 0 19 18" fill="none" xmlns="http://www.w3.org/2000/svg">
<path fill-rule="evenodd" clip-rule="evenodd" d="M7.5 15C8.32843 15 9 15.6716 9 16.5C9 17.3284 8.32843 18 7.5 18C6.67157 18 6 17.3284 6 16.5C6 15.6716 6.67157 15 7.5 15ZM7.5 15.5C6.94772 15.5 6.5 15.9477 6.5 16.5C6.5 17.0523 6.94772 17.5 7.5 17.5C8.05228 17.5 8.5 17.0523 8.5 16.5C8.5 15.9477 8.05228 15.5 7.5 15.5Z" fill="#1E293B"/>
<path fill-rule="evenodd" clip-rule="evenodd" d="M15.5 15C16.3284 15 17 15.6716 17 16.5C17 17.3284 16.3284 18 15.5 18C14.6716 18 14 17.3284 14 16.5C14 15.6716 14.6716 15 15.5 15ZM15.5 15.5C14.9477 15.5 14.5 15.9477 14.5 16.5C14.5 17.0523 14.9477 17.5 15.5 17.5C16.0523 17.5 16.5 17.0523 16.5 16.5C16.5 15.9477 16.0523 15.5 15.5 15.5Z" fill="#1E293B"/>
<path fill-rule="evenodd" clip-rule="evenodd" d="M1.73242 0C2.41119 0 3.00579 0.455764 3.18164 1.11133L3.56348 2.53613H16.6963C17.6825 2.53613 18.4006 3.47123 18.1455 4.42383L16.6816 9.88867C16.5058 10.5442 15.9112 11 15.2324 11H5.83105L6.40137 13.1299C6.46006 13.3483 6.65859 13.5 6.88477 13.5H16.5C16.7761 13.5 17 13.7239 17 14C17 14.2761 16.7761 14.5 16.5 14.5H6.88477C6.20598 14.5 5.61138 14.0443 5.43555 13.3887L2.21582 1.37012C2.15712 1.15174 1.95859 1 1.73242 1H0.5C0.223858 1 0 0.776142 0 0.5C0 0.223858 0.223858 0 0.5 0H1.73242ZM5.5625 10H15.2324C15.4586 10 15.6571 9.84826 15.7158 9.62988L17.1797 4.16504C17.2646 3.84756 17.025 3.53613 16.6963 3.53613H3.83105L5.5625 10Z" fill="#1E293B"/>
</svg>
